<mxfile host="app.diagrams.net" modified="2022-07-24T13:03:32.619Z" agent="5.0 (Macintosh; Intel Mac OS X 10_15_7) AppleWebKit/537.36 (KHTML, like Gecko) Chrome/103.0.0.0 Safari/537.36" etag="jUncNncMV7yANASWmjon" version="20.2.0" type="github">
  <diagram id="EkfMXQTPPP1aql3WqCzR" name="第 1 页">
    <mxGraphModel dx="888" dy="543" grid="1" gridSize="10" guides="1" tooltips="1" connect="1" arrows="1" fold="1" page="1" pageScale="1" pageWidth="827" pageHeight="1169" math="0" shadow="0">
      <root>
        <mxCell id="0" />
        <mxCell id="1" parent="0" />
        <mxCell id="DGDh14NJLm0COKoOLR8l-1" value="" style="rounded=0;whiteSpace=wrap;html=1;dashed=1;strokeWidth=1;" vertex="1" parent="1">
          <mxGeometry x="95" y="1020" width="670" height="140" as="geometry" />
        </mxCell>
        <mxCell id="DGDh14NJLm0COKoOLR8l-3" value="基础&lt;br style=&quot;font-size: 18px;&quot;&gt;设施" style="text;html=1;align=center;verticalAlign=middle;resizable=0;points=[];autosize=1;strokeColor=none;fillColor=none;fontStyle=1;fontSize=18;" vertex="1" parent="1">
          <mxGeometry x="95" y="1090" width="60" height="60" as="geometry" />
        </mxCell>
        <mxCell id="DGDh14NJLm0COKoOLR8l-4" value="数据&lt;br&gt;要素" style="text;html=1;align=center;verticalAlign=middle;resizable=0;points=[];autosize=1;strokeColor=none;fillColor=none;fontStyle=1;fontSize=18;" vertex="1" parent="1">
          <mxGeometry x="95" y="1020" width="60" height="60" as="geometry" />
        </mxCell>
        <mxCell id="DGDh14NJLm0COKoOLR8l-5" value="&lt;font style=&quot;font-size: 23px;&quot;&gt;底&lt;br&gt;&lt;br&gt;座&lt;/font&gt;" style="text;html=1;align=center;verticalAlign=middle;resizable=0;points=[];autosize=1;strokeColor=none;fillColor=none;fontStyle=1;fontSize=18;" vertex="1" parent="1">
          <mxGeometry x="40" y="1030" width="50" height="100" as="geometry" />
        </mxCell>
        <mxCell id="DGDh14NJLm0COKoOLR8l-6" value="&lt;b&gt;&lt;font style=&quot;font-size: 17px;&quot;&gt;感知层&lt;/font&gt;&lt;/b&gt;&lt;br&gt;&lt;h3 style=&quot;margin-top: 5pt; margin-bottom: 5pt; text-align: justify; font-size: 14px;&quot;&gt;&lt;span style=&quot;font-weight: normal;&quot;&gt;卫星遥感、环境感知、视频感知、智能设施、智能建筑、资源感知、环境感知......&lt;/span&gt;&lt;b style=&quot;font-family: 等线;&quot;&gt;&lt;/b&gt;&lt;/h3&gt;" style="rounded=0;whiteSpace=wrap;html=1;strokeWidth=1;" vertex="1" parent="1">
          <mxGeometry x="465" y="1080" width="280" height="70" as="geometry" />
        </mxCell>
        <mxCell id="DGDh14NJLm0COKoOLR8l-7" value="&lt;p class=&quot;MsoNormal&quot; style=&quot;font-size: 14px;&quot;&gt;&lt;span style=&quot;font-size: 14px;&quot;&gt;&lt;font face=&quot;等线&quot; style=&quot;font-size: 14px;&quot;&gt;多源数据、深度学习、云计算、边缘计算、&lt;/font&gt;&lt;font face=&quot;等线&quot; style=&quot;font-size: 14px;&quot;&gt;GIS......&lt;/font&gt;&lt;/span&gt;&lt;span style=&quot;font-size: 14px;&quot;&gt;&lt;/span&gt;&lt;/p&gt;" style="rounded=0;whiteSpace=wrap;html=1;strokeWidth=1;fontSize=14;" vertex="1" parent="1">
          <mxGeometry x="165" y="1030" width="580" height="40" as="geometry" />
        </mxCell>
        <mxCell id="DGDh14NJLm0COKoOLR8l-8" value="" style="rounded=0;whiteSpace=wrap;html=1;dashed=1;strokeWidth=1;" vertex="1" parent="1">
          <mxGeometry x="95" y="890" width="670" height="90" as="geometry" />
        </mxCell>
        <mxCell id="DGDh14NJLm0COKoOLR8l-9" value="&lt;h3 style=&quot;margin-top: 5pt; margin-bottom: 5pt; text-align: justify; font-family: 等线; font-size: 13.5pt;&quot;&gt;&lt;b&gt;“健康+”城市信息模型（CIM）平台&lt;/b&gt;&lt;b&gt;&lt;/b&gt;&lt;/h3&gt;" style="rounded=0;whiteSpace=wrap;html=1;strokeWidth=1;" vertex="1" parent="1">
          <mxGeometry x="105" y="930" width="310" height="40" as="geometry" />
        </mxCell>
        <mxCell id="DGDh14NJLm0COKoOLR8l-10" value="&lt;p style=&quot;margin: 0pt 0pt 0.0001pt; text-align: justify; font-family: &amp;quot;Times New Roman&amp;quot;;&quot; class=&quot;MsoNormal&quot;&gt;&lt;span style=&quot;font-family: 宋体;&quot;&gt;&lt;font style=&quot;font-size: 18px;&quot;&gt;&lt;b&gt;未来社区（乡村）健康管理平台&lt;/b&gt;&lt;/font&gt;&lt;/span&gt;&lt;/p&gt;" style="rounded=0;whiteSpace=wrap;html=1;strokeWidth=1;" vertex="1" parent="1">
          <mxGeometry x="435" y="930" width="310" height="40" as="geometry" />
        </mxCell>
        <mxCell id="DGDh14NJLm0COKoOLR8l-12" value="" style="endArrow=blockThin;html=1;rounded=0;fontSize=14;endFill=1;" edge="1" parent="1">
          <mxGeometry width="50" height="50" relative="1" as="geometry">
            <mxPoint x="429.40999999999997" y="1020" as="sourcePoint" />
            <mxPoint x="429.7" y="980" as="targetPoint" />
          </mxGeometry>
        </mxCell>
        <mxCell id="DGDh14NJLm0COKoOLR8l-14" value="" style="endArrow=blockThin;html=1;rounded=0;fontSize=14;endFill=1;" edge="1" parent="1">
          <mxGeometry width="50" height="50" relative="1" as="geometry">
            <mxPoint x="254.99999999999997" y="890" as="sourcePoint" />
            <mxPoint x="255.29000000000005" y="850" as="targetPoint" />
          </mxGeometry>
        </mxCell>
        <mxCell id="DGDh14NJLm0COKoOLR8l-15" value="" style="rounded=0;whiteSpace=wrap;html=1;dashed=1;strokeWidth=1;" vertex="1" parent="1">
          <mxGeometry x="95" y="557.5" width="670" height="292.5" as="geometry" />
        </mxCell>
        <mxCell id="DGDh14NJLm0COKoOLR8l-17" value="&lt;p style=&quot;margin: 0pt 0pt 0.0001pt; text-align: justify; font-family: &amp;quot;Times New Roman&amp;quot;; font-size: 10.5pt;&quot; class=&quot;MsoNormal&quot;&gt;&lt;br&gt;&lt;/p&gt;" style="triangle;whiteSpace=wrap;html=1;fontSize=14;strokeWidth=1;rotation=-90;" vertex="1" parent="1">
          <mxGeometry x="377.5" y="160" width="105" height="670" as="geometry" />
        </mxCell>
        <mxCell id="DGDh14NJLm0COKoOLR8l-18" value="&lt;font style=&quot;font-size: 22px;&quot;&gt;&lt;b style=&quot;font-size: 22px;&quot;&gt;&lt;span style=&quot;text-align: justify; font-family: 宋体; background-image: initial; background-position: initial; background-size: initial; background-repeat: initial; background-attachment: initial; background-origin: initial; background-clip: initial; font-size: 22px;&quot;&gt;&lt;font style=&quot;font-size: 22px;&quot; face=&quot;宋体&quot;&gt;“&lt;/font&gt;&lt;/span&gt;&lt;span style=&quot;text-align: justify; font-family: 宋体; background-image: initial; background-position: initial; background-size: initial; background-repeat: initial; background-attachment: initial; background-origin: initial; background-clip: initial; font-size: 22px;&quot;&gt;&lt;font style=&quot;font-size: 22px;&quot; face=&quot;宋体&quot;&gt;全民&lt;/font&gt;&lt;/span&gt;&lt;span style=&quot;text-align: justify; font-family: 宋体; background-image: initial; background-position: initial; background-size: initial; background-repeat: initial; background-attachment: initial; background-origin: initial; background-clip: initial; font-size: 22px;&quot;&gt;&lt;font style=&quot;font-size: 22px;&quot; face=&quot;宋体&quot;&gt;健康大脑&lt;/font&gt;&lt;/span&gt;&lt;span style=&quot;text-align: justify; font-family: 宋体; background-image: initial; background-position: initial; background-size: initial; background-repeat: initial; background-attachment: initial; background-origin: initial; background-clip: initial; font-size: 22px;&quot;&gt;&lt;font style=&quot;font-size: 22px;&quot; face=&quot;宋体&quot;&gt;”&lt;br style=&quot;font-size: 22px;&quot;&gt;&lt;/font&gt;&lt;/span&gt;&lt;span style=&quot;text-align: justify; font-family: 宋体; font-size: 22px;&quot;&gt;面向共同富裕的全民健康智慧管理系统&lt;/span&gt;&lt;/b&gt;&lt;/font&gt;" style="text;html=1;strokeColor=none;fillColor=none;align=center;verticalAlign=middle;whiteSpace=wrap;rounded=0;fontSize=22;" vertex="1" parent="1">
          <mxGeometry x="225" y="497.5" width="410" height="30" as="geometry" />
        </mxCell>
        <mxCell id="DGDh14NJLm0COKoOLR8l-20" value="&lt;span style=&quot;font-size: 23px;&quot;&gt;平&lt;br&gt;&lt;br&gt;台&lt;/span&gt;" style="text;html=1;align=center;verticalAlign=middle;resizable=0;points=[];autosize=1;strokeColor=none;fillColor=none;fontStyle=1;fontSize=18;" vertex="1" parent="1">
          <mxGeometry x="40" y="885" width="50" height="100" as="geometry" />
        </mxCell>
        <mxCell id="DGDh14NJLm0COKoOLR8l-21" value="&lt;span style=&quot;font-size: 23px;&quot;&gt;应&lt;br&gt;&lt;br&gt;&lt;br&gt;用&lt;/span&gt;" style="text;html=1;align=center;verticalAlign=middle;resizable=0;points=[];autosize=1;strokeColor=none;fillColor=none;fontStyle=1;fontSize=18;" vertex="1" parent="1">
          <mxGeometry x="40" y="617.5" width="50" height="120" as="geometry" />
        </mxCell>
        <mxCell id="DGDh14NJLm0COKoOLR8l-22" value="" style="rounded=0;whiteSpace=wrap;html=1;dashed=1;strokeWidth=1;" vertex="1" parent="1">
          <mxGeometry x="105" y="687.5" width="310" height="152.5" as="geometry" />
        </mxCell>
        <mxCell id="DGDh14NJLm0COKoOLR8l-23" value="" style="rounded=0;whiteSpace=wrap;html=1;dashed=1;strokeWidth=1;" vertex="1" parent="1">
          <mxGeometry x="435" y="687.5" width="310" height="152.5" as="geometry" />
        </mxCell>
        <mxCell id="DGDh14NJLm0COKoOLR8l-24" value="" style="rounded=0;whiteSpace=wrap;html=1;dashed=1;strokeWidth=1;" vertex="1" parent="1">
          <mxGeometry x="105" y="570.75" width="640" height="110" as="geometry" />
        </mxCell>
        <mxCell id="DGDh14NJLm0COKoOLR8l-25" value="&lt;div style=&quot;text-align: justify; font-size: 20px;&quot;&gt;&lt;span style=&quot;background-color: initial; font-size: 20px;&quot;&gt;&lt;font face=&quot;宋体&quot; style=&quot;font-size: 20px;&quot;&gt;&lt;b style=&quot;font-size: 20px;&quot;&gt;面向“物”&lt;/b&gt;&lt;/font&gt;&lt;/span&gt;&lt;/div&gt;" style="text;html=1;strokeColor=none;fillColor=none;align=center;verticalAlign=middle;whiteSpace=wrap;rounded=0;fontSize=20;" vertex="1" parent="1">
          <mxGeometry x="175" y="895" width="155" height="30" as="geometry" />
        </mxCell>
        <mxCell id="DGDh14NJLm0COKoOLR8l-26" value="&lt;div style=&quot;text-align: justify; font-size: 20px;&quot;&gt;&lt;span style=&quot;background-color: initial; font-size: 20px;&quot;&gt;&lt;font face=&quot;宋体&quot; style=&quot;font-size: 20px;&quot;&gt;&lt;b style=&quot;font-size: 20px;&quot;&gt;面向“人”&lt;/b&gt;&lt;/font&gt;&lt;/span&gt;&lt;/div&gt;" style="text;html=1;strokeColor=none;fillColor=none;align=center;verticalAlign=middle;whiteSpace=wrap;rounded=0;fontSize=20;" vertex="1" parent="1">
          <mxGeometry x="525" y="895" width="155" height="30" as="geometry" />
        </mxCell>
        <mxCell id="DGDh14NJLm0COKoOLR8l-27" value="&lt;div style=&quot;text-align: justify; font-size: 20px;&quot;&gt;&lt;span style=&quot;background-color: initial; font-size: 20px;&quot;&gt;&lt;font face=&quot;宋体&quot; style=&quot;font-size: 20px;&quot;&gt;&lt;b style=&quot;font-size: 20px;&quot;&gt;面向“共同富裕”&lt;/b&gt;&lt;/font&gt;&lt;/span&gt;&lt;/div&gt;" style="text;html=1;strokeColor=none;fillColor=none;align=center;verticalAlign=middle;whiteSpace=wrap;rounded=0;fontSize=20;" vertex="1" parent="1">
          <mxGeometry x="527.5" y="570.75" width="155" height="30" as="geometry" />
        </mxCell>
        <mxCell id="DGDh14NJLm0COKoOLR8l-28" value="&lt;b&gt;&lt;font style=&quot;font-size: 17px;&quot;&gt;网络层&lt;/font&gt;&lt;/b&gt;&lt;br&gt;&lt;h3 style=&quot;margin-top: 5pt; margin-bottom: 5pt; text-align: justify; font-size: 14px;&quot;&gt;&lt;span style=&quot;font-weight: normal;&quot;&gt;物联网、政务网、移动互联网、&lt;span style=&quot;font-family: 等线; font-size: 10.5pt; background-color: initial;&quot;&gt;5&lt;/span&gt;&lt;span style=&quot;font-family: 等线; font-size: 10.5pt; background-color: initial;&quot;&gt;G、自组织网&lt;/span&gt;&lt;span style=&quot;font-family: 等线; font-size: 10.5pt; background-color: initial;&quot;&gt;......&lt;/span&gt;&lt;/span&gt;&lt;/h3&gt;&lt;p style=&quot;margin: 0pt 0pt 0.0001pt; text-align: justify; font-family: 等线; font-size: 10.5pt;&quot; class=&quot;MsoNormal&quot;&gt;&lt;span style=&quot;font-size: 10.5pt;&quot;&gt;&lt;/span&gt;&lt;/p&gt;" style="rounded=0;whiteSpace=wrap;html=1;strokeWidth=1;" vertex="1" parent="1">
          <mxGeometry x="165" y="1080" width="280" height="70" as="geometry" />
        </mxCell>
        <mxCell id="DGDh14NJLm0COKoOLR8l-29" value="&lt;p style=&quot;margin: 0pt 0pt 0.0001pt; text-align: justify; font-family: &amp;quot;Times New Roman&amp;quot;; font-size: 10.5pt;&quot; class=&quot;MsoNormal&quot;&gt;&lt;span style=&quot;font-family: 宋体; letter-spacing: 0pt; font-size: 10.5pt; background: rgb(255, 255, 255);&quot;&gt;&lt;font style=&quot;font-size: 16px;&quot; face=&quot;宋体&quot;&gt;规建管一体化健康影响评估系统&lt;/font&gt;&lt;/span&gt;&lt;/p&gt;" style="rounded=0;whiteSpace=wrap;html=1;labelBackgroundColor=none;fontFamily=Helvetica;fontSize=16;strokeWidth=1;horizontal=1;" vertex="1" parent="1">
          <mxGeometry x="115" y="694" width="290" height="40" as="geometry" />
        </mxCell>
        <mxCell id="DGDh14NJLm0COKoOLR8l-30" value="&lt;p style=&quot;margin: 0pt 0pt 0.0001pt; text-align: justify; font-family: &amp;quot;Times New Roman&amp;quot;; font-size: 16px;&quot; class=&quot;MsoNormal&quot;&gt;&lt;span style=&quot;font-family: 宋体; letter-spacing: 0pt; font-size: 16px; background: rgb(255, 255, 255);&quot;&gt;&lt;font face=&quot;宋体&quot; style=&quot;font-size: 16px;&quot;&gt;环境监测系统&lt;/font&gt;&lt;/span&gt;&lt;/p&gt;" style="rounded=0;whiteSpace=wrap;html=1;labelBackgroundColor=none;fontFamily=Helvetica;fontSize=16;strokeWidth=1;horizontal=1;fontColor=#000000;" vertex="1" parent="1">
          <mxGeometry x="115" y="737.5" width="290" height="40" as="geometry" />
        </mxCell>
        <mxCell id="DGDh14NJLm0COKoOLR8l-31" value="&lt;p style=&quot;margin: 0pt 0pt 0.0001pt; text-align: justify;&quot; class=&quot;MsoNormal&quot;&gt;&lt;font face=&quot;宋体&quot;&gt;医疗设施布局系统&lt;/font&gt;&lt;br&gt;&lt;/p&gt;" style="rounded=0;whiteSpace=wrap;html=1;labelBackgroundColor=none;fontFamily=Helvetica;fontSize=16;strokeWidth=1;horizontal=1;" vertex="1" parent="1">
          <mxGeometry x="115" y="782" width="290" height="40" as="geometry" />
        </mxCell>
        <mxCell id="DGDh14NJLm0COKoOLR8l-32" value="" style="endArrow=blockThin;html=1;rounded=0;fontSize=14;endFill=1;" edge="1" parent="1">
          <mxGeometry width="50" height="50" relative="1" as="geometry">
            <mxPoint x="601.79" y="890" as="sourcePoint" />
            <mxPoint x="602.0799999999999" y="850" as="targetPoint" />
          </mxGeometry>
        </mxCell>
        <mxCell id="DGDh14NJLm0COKoOLR8l-40" value="&lt;p style=&quot;margin: 0pt 0pt 0.0001pt; text-align: justify;&quot; class=&quot;MsoNormal&quot;&gt;&lt;font face=&quot;宋体&quot;&gt;智慧健康管理子系统&lt;/font&gt;&lt;br&gt;&lt;/p&gt;" style="rounded=0;whiteSpace=wrap;html=1;labelBackgroundColor=none;fontFamily=Helvetica;fontSize=16;strokeWidth=1;horizontal=1;" vertex="1" parent="1">
          <mxGeometry x="445" y="694" width="290" height="40" as="geometry" />
        </mxCell>
        <mxCell id="DGDh14NJLm0COKoOLR8l-41" value="" style="endArrow=none;html=1;rounded=0;fontFamily=Helvetica;fontSize=14;fontColor=#000000;" edge="1" parent="1">
          <mxGeometry width="50" height="50" relative="1" as="geometry">
            <mxPoint x="602.16" y="691.5" as="sourcePoint" />
            <mxPoint x="602.16" y="677.5" as="targetPoint" />
          </mxGeometry>
        </mxCell>
        <mxCell id="DGDh14NJLm0COKoOLR8l-42" value="&lt;p style=&quot;text-align: start;&quot; class=&quot;15&quot;&gt;&lt;font style=&quot;font-size: 16px;&quot; face=&quot;等线&quot;&gt;慢性病登记追踪管理系统&lt;/font&gt;&lt;br&gt;&lt;/p&gt;" style="rounded=0;whiteSpace=wrap;html=1;labelBackgroundColor=none;fontFamily=Helvetica;fontSize=16;strokeWidth=1;horizontal=1;" vertex="1" parent="1">
          <mxGeometry x="115" y="608.25" width="290" height="32.5" as="geometry" />
        </mxCell>
        <mxCell id="DGDh14NJLm0COKoOLR8l-49" value="&lt;p style=&quot;margin: 0pt 0pt 0.0001pt; text-align: justify;&quot; class=&quot;MsoNormal&quot;&gt;&lt;font face=&quot;宋体&quot;&gt;智慧健康管理子系统&lt;/font&gt;&lt;br&gt;&lt;/p&gt;" style="rounded=0;whiteSpace=wrap;html=1;labelBackgroundColor=none;fontFamily=Helvetica;fontSize=16;strokeWidth=1;horizontal=1;" vertex="1" parent="1">
          <mxGeometry x="445" y="737.5" width="290" height="40" as="geometry" />
        </mxCell>
        <mxCell id="DGDh14NJLm0COKoOLR8l-50" value="&lt;p style=&quot;margin: 0pt 0pt 0.0001pt; text-align: justify;&quot; class=&quot;MsoNormal&quot;&gt;&lt;font face=&quot;宋体&quot;&gt;智慧健康管理子系统&lt;/font&gt;&lt;br&gt;&lt;/p&gt;" style="rounded=0;whiteSpace=wrap;html=1;labelBackgroundColor=none;fontFamily=Helvetica;fontSize=16;strokeWidth=1;horizontal=1;" vertex="1" parent="1">
          <mxGeometry x="445" y="782" width="290" height="40" as="geometry" />
        </mxCell>
        <mxCell id="DGDh14NJLm0COKoOLR8l-51" value="......" style="text;html=1;strokeColor=none;fillColor=none;align=center;verticalAlign=middle;whiteSpace=wrap;rounded=0;labelBackgroundColor=none;fontFamily=Helvetica;fontSize=14;fontColor=#000000;" vertex="1" parent="1">
          <mxGeometry x="230" y="813" width="60" height="30" as="geometry" />
        </mxCell>
        <mxCell id="DGDh14NJLm0COKoOLR8l-52" value="......" style="text;html=1;strokeColor=none;fillColor=none;align=center;verticalAlign=middle;whiteSpace=wrap;rounded=0;labelBackgroundColor=none;fontFamily=Helvetica;fontSize=14;fontColor=#000000;" vertex="1" parent="1">
          <mxGeometry x="572.5" y="813" width="60" height="30" as="geometry" />
        </mxCell>
        <mxCell id="DGDh14NJLm0COKoOLR8l-53" value="&lt;p style=&quot;margin: 0pt 0pt 0.0001pt; text-align: justify;&quot; class=&quot;MsoNormal&quot;&gt;&lt;font face=&quot;宋体&quot;&gt;社会心理服务系统&lt;/font&gt;&lt;br&gt;&lt;/p&gt;" style="rounded=0;whiteSpace=wrap;html=1;labelBackgroundColor=none;fontFamily=Helvetica;fontSize=16;strokeWidth=1;horizontal=1;" vertex="1" parent="1">
          <mxGeometry x="605" y="604.25" width="130" height="32.5" as="geometry" />
        </mxCell>
        <mxCell id="DGDh14NJLm0COKoOLR8l-54" value="&lt;p style=&quot;margin: 0pt 0pt 0.0001pt; text-align: justify;&quot; class=&quot;MsoNormal&quot;&gt;&lt;span style=&quot;font-family: 宋体;&quot;&gt;传染病和公共突发卫生事件监测预警系统&lt;/span&gt;&lt;br&gt;&lt;/p&gt;" style="rounded=0;whiteSpace=wrap;html=1;labelBackgroundColor=none;fontFamily=Helvetica;fontSize=16;strokeWidth=1;horizontal=1;" vertex="1" parent="1">
          <mxGeometry x="115" y="645" width="290" height="32.5" as="geometry" />
        </mxCell>
        <mxCell id="DGDh14NJLm0COKoOLR8l-55" value="&lt;p style=&quot;margin: 0pt 0pt 0.0001pt; text-align: justify;&quot; class=&quot;MsoNormal&quot;&gt;&lt;font face=&quot;宋体&quot;&gt;校园健康促进系统&lt;/font&gt;&lt;br&gt;&lt;/p&gt;" style="rounded=0;whiteSpace=wrap;html=1;labelBackgroundColor=none;fontFamily=Helvetica;fontSize=16;strokeWidth=1;horizontal=1;" vertex="1" parent="1">
          <mxGeometry x="445" y="604.25" width="150" height="32.5" as="geometry" />
        </mxCell>
        <mxCell id="DGDh14NJLm0COKoOLR8l-56" value="&lt;p style=&quot;margin: 0pt 0pt 0.0001pt; text-align: justify;&quot; class=&quot;MsoNormal&quot;&gt;&lt;span style=&quot;font-family: 宋体;&quot;&gt;特殊群体健康管理平台&lt;/span&gt;&lt;br&gt;&lt;/p&gt;" style="rounded=0;whiteSpace=wrap;html=1;labelBackgroundColor=none;fontFamily=Helvetica;fontSize=16;strokeWidth=1;horizontal=1;" vertex="1" parent="1">
          <mxGeometry x="115" y="571.75" width="290" height="32.5" as="geometry" />
        </mxCell>
        <mxCell id="DGDh14NJLm0COKoOLR8l-57" value="&lt;p style=&quot;margin: 0pt 0pt 0.0001pt; text-align: justify;&quot; class=&quot;MsoNormal&quot;&gt;&lt;font style=&quot;font-size: 16px;&quot; face=&quot;宋体&quot;&gt;疫苗接种管理系统&lt;/font&gt;&lt;br&gt;&lt;/p&gt;" style="rounded=0;whiteSpace=wrap;html=1;labelBackgroundColor=none;fontFamily=Helvetica;fontSize=16;strokeWidth=1;horizontal=1;" vertex="1" parent="1">
          <mxGeometry x="605" y="645" width="130" height="32.5" as="geometry" />
        </mxCell>
        <mxCell id="DGDh14NJLm0COKoOLR8l-58" value="&lt;p style=&quot;font-size: medium; text-align: start;&quot; class=&quot;15&quot;&gt;&lt;span style=&quot;font-family: 等线; font-size: 10.5pt;&quot;&gt;职业人群健康管理系统&lt;/span&gt;&lt;span style=&quot;font-family: 等线; font-size: 10.5pt;&quot;&gt;&lt;/span&gt;&lt;/p&gt;" style="rounded=0;whiteSpace=wrap;html=1;labelBackgroundColor=none;fontFamily=Helvetica;fontSize=16;strokeWidth=1;horizontal=1;" vertex="1" parent="1">
          <mxGeometry x="445" y="645" width="150" height="32.5" as="geometry" />
        </mxCell>
        <mxCell id="DGDh14NJLm0COKoOLR8l-59" value="&lt;h3 style=&quot;margin-top: 5pt; margin-bottom: 5pt; text-align: justify; font-family: 等线; font-size: 13.5pt;&quot;&gt;&lt;b&gt;“健康+”城市信息模型（CIM）平台&lt;/b&gt;&lt;b&gt;&lt;/b&gt;&lt;/h3&gt;" style="rounded=0;whiteSpace=wrap;html=1;strokeWidth=1;" vertex="1" parent="1">
          <mxGeometry x="80" y="380" width="675" height="40" as="geometry" />
        </mxCell>
        <mxCell id="DGDh14NJLm0COKoOLR8l-60" value="" style="rounded=0;whiteSpace=wrap;html=1;dashed=1;strokeWidth=1;" vertex="1" parent="1">
          <mxGeometry x="80" y="230" width="680" height="142.5" as="geometry" />
        </mxCell>
        <mxCell id="DGDh14NJLm0COKoOLR8l-61" value="&lt;div style=&quot;text-align: justify;&quot;&gt;&lt;span style=&quot;background-color: initial; font-size: 18px;&quot;&gt;&lt;font face=&quot;等线&quot;&gt;&lt;b&gt;核心应用/功能&lt;/b&gt;&lt;/font&gt;&lt;/span&gt;&lt;/div&gt;" style="rounded=0;whiteSpace=wrap;html=1;strokeWidth=1;" vertex="1" parent="1">
          <mxGeometry x="85" y="326" width="665" height="40" as="geometry" />
        </mxCell>
        <mxCell id="DGDh14NJLm0COKoOLR8l-62" value="&lt;p style=&quot;margin: 0pt 0pt 0.0001pt; text-align: justify; font-family: &amp;quot;Times New Roman&amp;quot;; font-size: 10.5pt;&quot; class=&quot;MsoNormal&quot;&gt;&lt;span style=&quot;font-family: 宋体; letter-spacing: 0pt; font-size: 10.5pt; background: rgb(255, 255, 255);&quot;&gt;&lt;font style=&quot;font-size: 16px;&quot; face=&quot;宋体&quot;&gt;规建管一体化健康影响评估系统&lt;/font&gt;&lt;/span&gt;&lt;/p&gt;" style="rounded=0;whiteSpace=wrap;html=1;labelBackgroundColor=none;fontFamily=Helvetica;fontSize=16;strokeWidth=1;horizontal=1;" vertex="1" parent="1">
          <mxGeometry x="85" y="280" width="245" height="40" as="geometry" />
        </mxCell>
        <mxCell id="DGDh14NJLm0COKoOLR8l-63" value="&lt;p style=&quot;margin: 0pt 0pt 0.0001pt; text-align: justify; font-family: &amp;quot;Times New Roman&amp;quot;; font-size: 16px;&quot; class=&quot;MsoNormal&quot;&gt;&lt;span style=&quot;font-family: 宋体; letter-spacing: 0pt; font-size: 16px; background: rgb(255, 255, 255);&quot;&gt;&lt;font face=&quot;宋体&quot; style=&quot;font-size: 16px;&quot;&gt;环境监测系统&lt;/font&gt;&lt;/span&gt;&lt;/p&gt;" style="rounded=0;whiteSpace=wrap;html=1;labelBackgroundColor=none;fontFamily=Helvetica;fontSize=16;strokeWidth=1;horizontal=1;fontColor=#000000;" vertex="1" parent="1">
          <mxGeometry x="340" y="280" width="160" height="40" as="geometry" />
        </mxCell>
        <mxCell id="DGDh14NJLm0COKoOLR8l-64" value="&lt;p style=&quot;margin: 0pt 0pt 0.0001pt; text-align: justify;&quot; class=&quot;MsoNormal&quot;&gt;&lt;font face=&quot;宋体&quot;&gt;医疗设施布局系统&lt;/font&gt;&lt;br&gt;&lt;/p&gt;" style="rounded=0;whiteSpace=wrap;html=1;labelBackgroundColor=none;fontFamily=Helvetica;fontSize=16;strokeWidth=1;horizontal=1;" vertex="1" parent="1">
          <mxGeometry x="507" y="280" width="166" height="40" as="geometry" />
        </mxCell>
        <mxCell id="DGDh14NJLm0COKoOLR8l-65" value="......" style="text;html=1;strokeColor=none;fillColor=none;align=center;verticalAlign=middle;whiteSpace=wrap;rounded=0;labelBackgroundColor=none;fontFamily=Helvetica;fontSize=14;fontColor=#000000;" vertex="1" parent="1">
          <mxGeometry x="682.5" y="285" width="60" height="30" as="geometry" />
        </mxCell>
        <mxCell id="DGDh14NJLm0COKoOLR8l-66" value="&lt;p style=&quot;margin: 0pt 0pt 0.0001pt;&quot; class=&quot;MsoNormal&quot;&gt;&lt;span style=&quot;font-family: 宋体; font-size: 12pt; background-color: initial;&quot;&gt;多维、多尺度&lt;/span&gt;&lt;/p&gt;&lt;p style=&quot;margin: 0pt 0pt 0.0001pt;&quot; class=&quot;MsoNormal&quot;&gt;&lt;font face=&quot;宋体&quot;&gt;实时互联，虚实映射&lt;/font&gt;&lt;br&gt;&lt;/p&gt;" style="rounded=0;whiteSpace=wrap;html=1;labelBackgroundColor=none;fontFamily=Helvetica;fontSize=16;strokeWidth=1;horizontal=1;fontColor=#000000;" vertex="1" parent="1">
          <mxGeometry x="85" y="235" width="665" height="40" as="geometry" />
        </mxCell>
        <mxCell id="DGDh14NJLm0COKoOLR8l-73" value="" style="rounded=0;whiteSpace=wrap;html=1;dashed=1;strokeWidth=1;" vertex="1" parent="1">
          <mxGeometry x="80" y="80" width="680" height="142.5" as="geometry" />
        </mxCell>
        <mxCell id="DGDh14NJLm0COKoOLR8l-74" value="&lt;div style=&quot;text-align: justify;&quot;&gt;&lt;span style=&quot;background-color: initial; font-size: 18px;&quot;&gt;&lt;font face=&quot;等线&quot;&gt;&lt;b&gt;业务场景&lt;/b&gt;&lt;/font&gt;&lt;/span&gt;&lt;/div&gt;" style="rounded=0;whiteSpace=wrap;html=1;strokeWidth=1;" vertex="1" parent="1">
          <mxGeometry x="85" y="176" width="665" height="40" as="geometry" />
        </mxCell>
        <mxCell id="DGDh14NJLm0COKoOLR8l-75" value="&lt;p style=&quot;margin: 0pt 0pt 0.0001pt; text-align: justify;&quot; class=&quot;MsoNormal&quot;&gt;&lt;font face=&quot;宋体&quot;&gt;健康影响评估&lt;/font&gt;&lt;br&gt;&lt;/p&gt;" style="rounded=0;whiteSpace=wrap;html=1;labelBackgroundColor=none;fontFamily=Helvetica;fontSize=16;strokeWidth=1;horizontal=1;" vertex="1" parent="1">
          <mxGeometry x="85" y="130" width="135" height="40" as="geometry" />
        </mxCell>
        <mxCell id="DGDh14NJLm0COKoOLR8l-76" value="&lt;p style=&quot;margin: 0pt 0pt 0.0001pt; text-align: justify;&quot; class=&quot;MsoNormal&quot;&gt;&lt;font face=&quot;宋体&quot;&gt;健康影响风险&lt;/font&gt;&lt;span style=&quot;background-color: initial; font-family: 宋体;&quot;&gt;识别与消除&lt;/span&gt;&lt;/p&gt;" style="rounded=0;whiteSpace=wrap;html=1;labelBackgroundColor=none;fontFamily=Helvetica;fontSize=16;strokeWidth=1;horizontal=1;fontColor=#000000;" vertex="1" parent="1">
          <mxGeometry x="240" y="130" width="210" height="40" as="geometry" />
        </mxCell>
        <mxCell id="DGDh14NJLm0COKoOLR8l-77" value="&lt;p style=&quot;margin: 0pt 0pt 0.0001pt; text-align: justify;&quot; class=&quot;MsoNormal&quot;&gt;&lt;font face=&quot;宋体&quot;&gt;规划布局与&lt;/font&gt;&lt;span style=&quot;background-color: initial; font-family: 宋体;&quot;&gt;健康服务&lt;/span&gt;&lt;/p&gt;" style="rounded=0;whiteSpace=wrap;html=1;labelBackgroundColor=none;fontFamily=Helvetica;fontSize=16;strokeWidth=1;horizontal=1;" vertex="1" parent="1">
          <mxGeometry x="470" y="130" width="183" height="40" as="geometry" />
        </mxCell>
        <mxCell id="DGDh14NJLm0COKoOLR8l-78" value="......" style="text;html=1;strokeColor=none;fillColor=none;align=center;verticalAlign=middle;whiteSpace=wrap;rounded=0;labelBackgroundColor=none;fontFamily=Helvetica;fontSize=14;fontColor=#000000;" vertex="1" parent="1">
          <mxGeometry x="682.5" y="135" width="60" height="30" as="geometry" />
        </mxCell>
        <mxCell id="DGDh14NJLm0COKoOLR8l-79" value="&lt;p style=&quot;margin: 0pt 0pt 0.0001pt; text-align: justify;&quot; class=&quot;MsoNormal&quot;&gt;&lt;font face=&quot;宋体&quot;&gt;精细化、动态化、智能化&lt;/font&gt;&lt;/p&gt;&lt;p style=&quot;margin: 0pt 0pt 0.0001pt; text-align: justify;&quot; class=&quot;MsoNormal&quot;&gt;&lt;font face=&quot;宋体&quot;&gt;多尺度、多维度、多粒度&lt;/font&gt;&lt;/p&gt;" style="rounded=0;whiteSpace=wrap;html=1;labelBackgroundColor=none;fontFamily=Helvetica;fontSize=16;strokeWidth=1;horizontal=1;fontColor=#000000;" vertex="1" parent="1">
          <mxGeometry x="85" y="85" width="665" height="40" as="geometry" />
        </mxCell>
      </root>
    </mxGraphModel>
  </diagram>
</mxfile>
